<svg data-name="Icon material-my-location" xmlns="http://www.w3.org/2000/svg" width="13.282" height="13.282" viewBox="0 0 13.282 13.282">
    <path data-name="Icon material-my-location" d="M8.141 5.726a2.415 2.415 0 1 0 2.415 2.415 2.414 2.414 0 0 0-2.415-2.415zm5.4 1.811a5.43 5.43 0 0 0-4.796-4.793V1.5H7.537v1.244a5.43 5.43 0 0 0-4.793 4.793H1.5v1.208h1.244a5.43 5.43 0 0 0 4.793 4.794v1.244h1.208v-1.245a5.43 5.43 0 0 0 4.794-4.794h1.244V7.537zm-5.4 4.83a4.226 4.226 0 1 1 4.226-4.226 4.223 4.223 0 0 1-4.226 4.226z" transform="translate(-1.5 -1.5)" style="fill:#fff"/>
</svg>
