<svg width="25" height="24" viewBox="0 0 25 24" fill="none" xmlns="http://www.w3.org/2000/svg">
    <g clip-path="url(#clip0_3048_5547)">
        <path d="M20.2702 16.1258L16.7612 12.0262C16.3699 11.5688 16.4253 10.8837 16.8851 10.4958L20.6497 7.31594C21.1091 6.9276 21.6786 6.65676 21.921 6.71159C22.1634 6.76544 22.6993 6.45939 23.118 6.02746L23.9623 5.15623C24.381 4.72431 24.4427 4.03127 24.0998 3.61015C23.7571 3.18804 23.0694 3.11115 22.5646 3.43772L21.5498 4.09394C21.0444 4.4206 20.6345 4.86964 20.6345 5.09744C20.6345 5.32515 20.2622 5.82424 19.8028 6.21304L15.9853 9.44576C15.5259 9.8341 14.8364 9.77927 14.4451 9.32186L13.3089 7.99467C12.9176 7.53726 12.8519 6.81442 13.1296 6.35845C13.4068 5.90249 13.8784 5.07925 13.8799 4.47742C13.8813 3.75458 13.5434 2.71335 12.1066 1.54048C10.5381 0.258846 9.13801 0.0242912 8.23194 0.0566157C7.63056 0.0776852 7.4738 0.625221 7.85683 1.08947L9.77172 3.40981C10.1547 3.87406 10.1424 4.61653 9.74426 5.06808L9.70266 5.11563C9.30495 5.56664 8.56644 6.1872 8.05321 6.50207L8.03358 6.51386C7.52035 6.82828 6.7813 6.71708 6.38314 6.26607L4.39198 4.01074C3.99383 3.55973 3.42864 3.62825 3.31357 4.21891C3.17302 4.9369 3.15393 6.00009 3.68679 7.30325C3.9145 7.86006 4.40477 8.71022 4.78384 9.17744C5.5165 10.0805 6.23448 10.4037 6.79273 10.4914C7.38682 10.5849 8.23842 10.2593 8.68943 10.0771C9.14098 9.89497 9.8026 10.1031 10.1807 10.5717L11.3125 11.9748C11.6901 12.443 11.7669 13.0175 11.4839 13.2569C11.2008 13.4969 10.6597 13.3157 10.2752 12.8529L10.2233 12.7902C9.83934 12.3274 9.40543 11.9518 9.25507 11.9518C9.1047 11.9518 8.99449 12.4395 9.00926 13.0414L9.01709 13.3794C9.03177 13.9813 8.56896 14.3803 7.98424 14.2717C7.39897 14.163 6.54782 14.3843 6.08312 14.7662L1.16854 18.7997C0.703749 19.1817 0.32666 19.8233 0.32666 20.2327C0.32666 20.6426 0.631267 21.3551 1.00737 21.8253L1.94568 22.9983C2.32178 23.4684 2.95161 23.8901 3.35265 23.94C3.75378 23.991 4.45357 23.7191 4.91638 23.3342L9.8397 19.2347C10.302 18.8498 10.6963 18.0505 10.7198 17.4491L10.7252 17.312C10.7487 16.71 11.2438 16.3291 11.8315 16.4598L11.8834 16.4706C12.4711 16.6014 12.9472 16.5652 12.9472 16.3899C12.9472 16.2145 12.7018 15.7757 12.3982 15.4104C12.095 15.0456 12.0759 14.5583 12.3551 14.3222C12.6342 14.0861 13.1671 14.2742 13.5451 14.7424L16.8244 18.8087C17.202 19.2769 17.4704 19.82 17.4473 20.0252C17.4336 20.1481 17.4262 20.2726 17.4262 20.3989C17.4262 22.305 18.9709 23.8491 20.8764 23.8491C22.7819 23.8491 24.3266 22.305 24.3266 20.3989C24.3266 18.9038 23.375 17.6334 22.0444 17.1554C21.4789 16.9514 20.6615 16.5832 20.2702 16.1258ZM20.8765 22.2602C19.8485 22.2602 19.0155 21.4267 19.0155 20.3987C19.0155 19.3707 19.8486 18.5372 20.8765 18.5372C21.9049 18.5372 22.738 19.3707 22.738 20.3987C22.7379 21.4267 21.9049 22.2602 20.8765 22.2602Z" fill="#0079FF"/>
    </g>
    <defs>
        <clipPath id="clip0_3048_5547">
            <rect width="24" height="24" fill="white" transform="translate(0.32666)"/>
        </clipPath>
    </defs>
</svg>
